<svg width="44" height="71" viewBox="0 0 44 71" fill="none" xmlns="http://www.w3.org/2000/svg">
<path d="M22 0C11.8458 0 0 7.03446 0 24.9483C0 37.1002 16.9253 63.9655 22 71C26.5124 63.9655 44 37.7392 44 24.9483C44 7.03446 32.1542 0 22 0Z" fill="#F24822"/>
<circle cx="22" cy="23" r="19" fill="white"/>
<path d="M24.625 24.5417V25.5833C24.625 28.5292 24.625 30.0031 25.5406 30.9177C26.4552 31.8333 27.9292 31.8333 30.875 31.8333M30.5531 29.75V33.9167M18.375 22.2813L17.8156 22.3427C16.9781 22.4365 16.5594 22.4823 16.226 22.4469C14.599 22.2698 13.3156 20.8271 13.175 19.0156C13.1458 18.6448 13.1927 18.1802 13.2854 17.25M23.2615 18.2917H23.2719M26.7083 18.2917H31.3958" stroke="#B5361A" stroke-width="1.5" stroke-linecap="round" stroke-linejoin="round"/>
<path d="M11.3396 15.4C11.1083 14.4656 10.9927 13.999 11.1687 13.651C11.2281 13.533 11.3094 13.4273 11.4083 13.3396C11.701 13.0833 12.1771 13.0833 13.1323 13.0833H26.2448C29.3771 13.0833 31.9167 15.6479 31.9167 18.8125C31.9167 21.9771 29.3771 24.5417 26.2437 24.5417H21.2969C20.4469 24.5417 20.0219 24.5417 19.6573 24.3958C19.3757 24.2828 19.1223 24.1097 18.9146 23.8885C18.6448 23.6 18.4875 23.201 18.1719 22.4052L17.6115 20.9917C17.2885 20.174 17.126 19.7656 16.8271 19.4625C16.5271 19.1604 16.1229 18.9969 15.3135 18.6708L13.551 17.9583C12.7937 17.6521 12.4156 17.5 12.1312 17.2292C12.0317 17.1348 11.9416 17.0308 11.8625 16.9188C11.6365 16.5979 11.5375 16.199 11.3396 15.4Z" stroke="#B5361A" stroke-width="1.5" stroke-linecap="round" stroke-linejoin="round"/>
</svg>
